<svg class="diagram-root" style="background: #f5f6f6" xmlns="http://www.w3.org/2000/svg" xmlns:xlink="http://www.w3.org/1999/xlink"><style>.diagram-root { font-family: "Helvetica Neue", sans-serif; font-size: 12px; } .t { overflow: visible; } .t-bg { y: 40; fill: #fff;   } .th { fill: #005aa0;   } .tht { fill: #fff; font-size: 14px;  } .tf { fill: #323c46; overflow: visible; } .tf.pk { fill: #005aa0; font-weight: bold; } .tf.fk { font-weight: bold; } .ty { fill: #adb1b5; font-weight: normal; text-anchor: end; } .r { fill: transparent; stroke: #c3c3c3; stroke-width: 1; } .l { stroke: 1; } .i { fill: #c2c7ce; stroke: #c2c7ce; } .i.ix { fill: #afb3b6; stroke: #000; } .fa { fill: transparent; overflow: visible; } .fa .bg.hover { fill: #f7f7f7; } .c { cy: 12; r: 4; stroke: #d2d2dc; fill: #d2d2dc; } .hr { fill: transparent; stroke: #323c46; stroke-opacity: 0.035; stroke-width: 13; } .dc { stroke: #fa5a3c; fill: #fa5a3c; } .x { stroke: white; stroke-width: 1; } .hl .th { fill: #1b9bff; } .hl .tht {  } .fhl .bg { fill: #e7f4ff; } .fhls .bg {  } .r.hl { stroke: #1b9bff; } .dim { opacity: 0.25; }</style><g class="drawing-wrapper" transform="translate(-157, -138) scale(1,1)"><g class="rs"><path d="M 431 398 m -1, 0 a 1,1 0 1,0 2,0 a 1,1 0 1,0 -2,0 M 431 398 m -0.5, 0 a 0.5,0.5 0 1,0 1,0 a 0.5,0.5 0 1,0 -1,0  M431 398 L431 398 419 398 M 431 404 m -1, 0 a 1,1 0 1,0 2,0 a 1,1 0 1,0 -2,0 M 431 404 m -0.5, 0 a 0.5,0.5 0 1,0 1,0 a 0.5,0.5 0 1,0 -1,0  M431 404 L431 404 424 398 431 392 M 431 392 m -1, 0 a 1,1 0 1,0 2,0 a 1,1 0 1,0 -2,0 M 431 392 m -0.5, 0 a 0.5,0.5 0 1,0 1,0 a 0.5,0.5 0 1,0 -1,0  M419 398 Q 400.84 398, 382.67 415.5 T 346.33 433 M 334.33 433 m -1, 0 a 1,1 0 1,0 2,0 a 1,1 0 1,0 -2,0 M 334.33 433 m -0.5, 0 a 0.5,0.5 0 1,0 1,0 a 0.5,0.5 0 1,0 -1,0  M334.33 433 L334.33 433 346.33 433 M340.33 439 L340.33 439 340.33 427" id="h133153459" class="r"></path><path d="M 770 435 m -1, 0 a 1,1 0 1,0 2,0 a 1,1 0 1,0 -2,0 M 770 435 m -0.5, 0 a 0.5,0.5 0 1,0 1,0 a 0.5,0.5 0 1,0 -1,0  M770 435 L770 435 758 435 M 770 441 m -1, 0 a 1,1 0 1,0 2,0 a 1,1 0 1,0 -2,0 M 770 441 m -0.5, 0 a 0.5,0.5 0 1,0 1,0 a 0.5,0.5 0 1,0 -1,0  M770 441 L770 441 763 435 770 429 M 770 429 m -1, 0 a 1,1 0 1,0 2,0 a 1,1 0 1,0 -2,0 M 770 429 m -0.5, 0 a 0.5,0.5 0 1,0 1,0 a 0.5,0.5 0 1,0 -1,0  M758 435 Q 720.41 435, 682.81 404 T 607.62 373 M 595.62 373 m -1, 0 a 1,1 0 1,0 2,0 a 1,1 0 1,0 -2,0 M 595.62 373 m -0.5, 0 a 0.5,0.5 0 1,0 1,0 a 0.5,0.5 0 1,0 -1,0  M595.62 373 L595.62 373 607.62 373 M601.62 379 L601.62 379 601.62 367" id="h221257298" class="r"></path><path d="M 744 692 m -1, 0 a 1,1 0 1,0 2,0 a 1,1 0 1,0 -2,0 M 744 692 m -0.5, 0 a 0.5,0.5 0 1,0 1,0 a 0.5,0.5 0 1,0 -1,0  M744 692 L744 692 732 692 M 744 698 m -1, 0 a 1,1 0 1,0 2,0 a 1,1 0 1,0 -2,0 M 744 698 m -0.5, 0 a 0.5,0.5 0 1,0 1,0 a 0.5,0.5 0 1,0 -1,0  M744 698 L744 698 737 692 744 686 M 744 686 m -1, 0 a 1,1 0 1,0 2,0 a 1,1 0 1,0 -2,0 M 744 686 m -0.5, 0 a 0.5,0.5 0 1,0 1,0 a 0.5,0.5 0 1,0 -1,0  M732 692 Q 700.91 692, 669.81 532.5 T 607.62 373 M 595.62 373 m -1, 0 a 1,1 0 1,0 2,0 a 1,1 0 1,0 -2,0 M 595.62 373 m -0.5, 0 a 0.5,0.5 0 1,0 1,0 a 0.5,0.5 0 1,0 -1,0  M595.62 373 L595.62 373 607.62 373 M601.62 379 L601.62 379 601.62 367" id="h1276361786" class="r"></path><path d="M 887.66 717 m -1, 0 a 1,1 0 1,0 2,0 a 1,1 0 1,0 -2,0 M 887.66 717 m -0.5, 0 a 0.5,0.5 0 1,0 1,0 a 0.5,0.5 0 1,0 -1,0  M887.66 717 L887.66 717 899.66 717 M 887.66 723 m -1, 0 a 1,1 0 1,0 2,0 a 1,1 0 1,0 -2,0 M 887.66 723 m -0.5, 0 a 0.5,0.5 0 1,0 1,0 a 0.5,0.5 0 1,0 -1,0  M887.66 723 L887.66 723 894.66 717 887.66 711 M 887.66 711 m -1, 0 a 1,1 0 1,0 2,0 a 1,1 0 1,0 -2,0 M 887.66 711 m -0.5, 0 a 0.5,0.5 0 1,0 1,0 a 0.5,0.5 0 1,0 -1,0  M899.66 717 Q 959.25 717, 1018.83 574.5 T 1138 432 M 1150 432 m -1, 0 a 1,1 0 1,0 2,0 a 1,1 0 1,0 -2,0 M 1150 432 m -0.5, 0 a 0.5,0.5 0 1,0 1,0 a 0.5,0.5 0 1,0 -1,0  M1150 432 L1150 432 1138 432 M1144 438 L1144 438 1144 426" id="h3801052274" class="r"></path><path d="M 899.66 225 m -1, 0 a 1,1 0 1,0 2,0 a 1,1 0 1,0 -2,0 M 899.66 225 m -0.5, 0 a 0.5,0.5 0 1,0 1,0 a 0.5,0.5 0 1,0 -1,0  M899.66 225 L899.66 225 911.66 225 M 899.66 231 m -1, 0 a 1,1 0 1,0 2,0 a 1,1 0 1,0 -2,0 M 899.66 231 m -0.5, 0 a 0.5,0.5 0 1,0 1,0 a 0.5,0.5 0 1,0 -1,0  M899.66 231 L899.66 231 906.66 225 899.66 219 M 899.66 219 m -1, 0 a 1,1 0 1,0 2,0 a 1,1 0 1,0 -2,0 M 899.66 219 m -0.5, 0 a 0.5,0.5 0 1,0 1,0 a 0.5,0.5 0 1,0 -1,0  M911.66 225 Q 968.24 225, 1024.83 328.5 T 1138 432 M 1150 432 m -1, 0 a 1,1 0 1,0 2,0 a 1,1 0 1,0 -2,0 M 1150 432 m -0.5, 0 a 0.5,0.5 0 1,0 1,0 a 0.5,0.5 0 1,0 -1,0  M1150 432 L1150 432 1138 432 M1144 438 L1144 438 1144 426" id="h3596939484" class="r"></path><path d="M 756 250 m -1, 0 a 1,1 0 1,0 2,0 a 1,1 0 1,0 -2,0 M 756 250 m -0.5, 0 a 0.5,0.5 0 1,0 1,0 a 0.5,0.5 0 1,0 -1,0  M756 250 L756 250 744 250 M 756 256 m -1, 0 a 1,1 0 1,0 2,0 a 1,1 0 1,0 -2,0 M 756 256 m -0.5, 0 a 0.5,0.5 0 1,0 1,0 a 0.5,0.5 0 1,0 -1,0  M756 256 L756 256 749 250 756 244 M 756 244 m -1, 0 a 1,1 0 1,0 2,0 a 1,1 0 1,0 -2,0 M 756 244 m -0.5, 0 a 0.5,0.5 0 1,0 1,0 a 0.5,0.5 0 1,0 -1,0  M744 250 Q 709.91 250, 675.81 311.5 T 607.62 373 M 595.62 373 m -1, 0 a 1,1 0 1,0 2,0 a 1,1 0 1,0 -2,0 M 595.62 373 m -0.5, 0 a 0.5,0.5 0 1,0 1,0 a 0.5,0.5 0 1,0 -1,0  M595.62 373 L595.62 373 607.62 373 M601.62 379 L601.62 379 601.62 367" id="h1130742295" class="r"></path></g><g class="hrs"></g><g class="ts"><svg width="155.33" height="100" x="179" y="376" id="h3517680912" class="t"><rect height="40" width="155.33" class="th"></rect><text x="13" y="25" class="tht">Titles</text><rect height="60" width="155.33" class="t-bg"></rect><text x="13" y="61" class="tf pk">title_id<tspan x="142.33" class="ty">VARCHAR</tspan></text><path d="M7,14A2,2 0 0,1 5,12A2,2 0 0,1 7,10A2,2 0 0,1 9,12A2,2 0 0,1 7,14M12.65,10C11.83,7.67 9.61,6 7, 6A6, 6 0 0, 0 1, 12A6, 6 0 0, 0 7, 18C9.61, 18 11.83, 16.33 12.65, 14H17V18H21V14H23V10H12.65Z" class="i pk" transform="translate(68.89250000000001, 48) scale(0.65)"></path><text x="13" y="86" class="tf">title<tspan x="142.33" class="ty">VARCHAR</tspan></text></svg><svg width="164.62" height="225" x="431" y="316" id="h3299212598" class="t"><rect height="40" width="164.62" class="th"></rect><text x="13" y="25" class="tht">Employees</text><rect height="185" width="164.62" class="t-bg"></rect><text x="13" y="61" class="tf pk">emp_no<tspan x="151.62" class="ty">int</tspan></text><path d="M7,14A2,2 0 0,1 5,12A2,2 0 0,1 7,10A2,2 0 0,1 9,12A2,2 0 0,1 7,14M12.65,10C11.83,7.67 9.61,6 7, 6A6, 6 0 0, 0 1, 12A6, 6 0 0, 0 7, 18C9.61, 18 11.83, 16.33 12.65, 14H17V18H21V14H23V10H12.65Z" class="i pk" transform="translate(117.59265625, 48) scale(0.65)"></path><text x="13" y="86" class="tf fk">emp_title_id<tspan x="151.62" class="ty">VARCHAR</tspan></text><text x="13" y="111" class="tf">birth_date<tspan x="151.62" class="ty">DATE</tspan></text><text x="13" y="136" class="tf">first_name<tspan x="151.62" class="ty">VARCHAR</tspan></text><text x="13" y="161" class="tf">last_name<tspan x="151.62" class="ty">VARCHAR</tspan></text><text x="13" y="186" class="tf">sex<tspan x="151.62" class="ty">VARCHAR</tspan></text><text x="13" y="211" class="tf">hire_date<tspan x="151.62" class="ty">DATE</tspan></text></svg><svg width="103.45" height="100" x="770" y="378" id="h3858243705" class="t"><rect height="40" width="103.45" class="th"></rect><text x="13" y="25" class="tht">Salaries</text><rect height="60" width="103.45" class="t-bg"></rect><text x="13" y="61" class="tf fk">emp_no<tspan x="90.45" class="ty">int</tspan></text><text x="13" y="86" class="tf">Salary<tspan x="90.45" class="ty">int</tspan></text></svg><svg width="143.66" height="100" x="744" y="635" id="h4086156755" class="t"><rect height="40" width="143.66" class="th"></rect><text x="13" y="25" class="tht">Dept_emp</text><rect height="60" width="143.66" class="t-bg"></rect><text x="13" y="61" class="tf fk">demp_no<tspan x="130.66" class="ty">int</tspan></text><text x="13" y="86" class="tf fk">dept_no<tspan x="130.66" class="ty">VARCHAR</tspan></text></svg><svg width="143.66" height="100" x="756" y="168" id="h754932316" class="t"><rect height="40" width="143.66" class="th"></rect><text x="13" y="25" class="tht">Dept_Manager</text><rect height="60" width="143.66" class="t-bg"></rect><text x="13" y="61" class="tf fk">dept_no<tspan x="130.66" class="ty">VARCHAR</tspan></text><text x="13" y="86" class="tf fk">emp_no<tspan x="130.66" class="ty">int</tspan></text></svg><svg width="163.66" height="100" x="1150" y="375" id="h2876837712" class="t"><rect height="40" width="163.66" class="th"></rect><text x="13" y="25" class="tht">Department</text><rect height="60" width="163.66" class="t-bg"></rect><text x="13" y="61" class="tf pk">dept_no<tspan x="150.66" class="ty">VARCHAR</tspan></text><path d="M7,14A2,2 0 0,1 5,12A2,2 0 0,1 7,10A2,2 0 0,1 9,12A2,2 0 0,1 7,14M12.65,10C11.83,7.67 9.61,6 7, 6A6, 6 0 0, 0 1, 12A6, 6 0 0, 0 7, 18C9.61, 18 11.83, 16.33 12.65, 14H17V18H21V14H23V10H12.65Z" class="i pk" transform="translate(77.2225, 48) scale(0.65)"></path><text x="13" y="86" class="tf">dept_name<tspan x="150.66" class="ty">VARCHAR</tspan></text></svg></g></g><text class="qdbd-link" x="10" y="20">www.quickdatabasediagrams.com</text></svg>